<?xml version="1.0" encoding="utf-8"?>
<!-- Generator: Adobe Illustrator 16.0.0, SVG Export Plug-In . SVG Version: 6.00 Build 0)  -->
<!DOCTYPE svg PUBLIC "-//W3C//DTD SVG 1.1//EN" "http://www.w3.org/Graphics/SVG/1.1/DTD/svg11.dtd">
<svg version="1.1" id="Layer_1" xmlns="http://www.w3.org/2000/svg" xmlns:xlink="http://www.w3.org/1999/xlink" x="0px" y="0px"
	 width="37.779px" height="37.779px" viewBox="0 0 37.779 37.779" enable-background="new 0 0 37.779 37.779" xml:space="preserve">
<path fill="#3B3B3B" d="M0.89,18.89c0-3.265,0.804-6.276,2.411-9.036C4.91,7.094,7.094,4.91,9.854,3.302
	c2.76-1.607,5.771-2.411,9.036-2.411c3.264,0,6.275,0.804,9.035,2.411c2.761,1.608,4.944,3.792,6.553,6.553
	c1.606,2.76,2.412,5.771,2.412,9.036c0,3.264-0.805,6.275-2.412,9.035c-1.608,2.761-3.792,4.944-6.553,6.553
	c-2.76,1.606-5.771,2.412-9.035,2.412c-3.265,0-6.276-0.805-9.036-2.412c-2.76-1.608-4.944-3.792-6.553-6.553
	C1.693,25.166,0.89,22.154,0.89,18.89z M3.877,18.89c0,3.743,1.261,7.044,3.78,9.899c1.152-2.256,2.976-4.404,5.472-6.443
	c2.496-2.04,4.933-3.324,7.309-3.853c-0.36-0.84-0.708-1.596-1.044-2.268c-4.128,1.319-8.593,1.979-13.393,1.979
	c-0.936,0-1.632-0.012-2.088-0.036c0,0.097-0.006,0.216-0.018,0.36C3.884,18.674,3.877,18.793,3.877,18.89z M4.346,15.182
	c0.527,0.048,1.308,0.071,2.34,0.071c4.008,0,7.812-0.541,11.412-1.62c-1.824-3.239-3.828-5.939-6.013-8.1
	C10.19,6.494,8.563,7.826,7.208,9.53C5.853,11.234,4.897,13.118,4.346,15.182z M9.71,30.734c2.711,2.112,5.771,3.168,9.181,3.168
	c1.775,0,3.54-0.336,5.292-1.008c-0.48-4.104-1.416-8.076-2.809-11.916c-2.208,0.479-4.434,1.69-6.678,3.636
	C12.452,26.558,10.79,28.598,9.71,30.734z M15.217,4.382c2.113,2.185,4.068,4.908,5.869,8.173c3.265-1.368,5.725-3.108,7.38-5.221
	C25.682,5.03,22.49,3.878,18.89,3.878C17.666,3.878,16.441,4.045,15.217,4.382z M22.382,15.11c0.36,0.768,0.769,1.74,1.225,2.916
	c1.775-0.168,3.708-0.252,5.796-0.252c1.488,0,2.964,0.036,4.428,0.107c-0.191-3.264-1.368-6.168-3.528-8.712
	C28.742,11.498,26.102,13.478,22.382,15.11z M24.506,20.546c1.225,3.553,2.053,7.2,2.484,10.944
	c1.896-1.224,3.444-2.796,4.644-4.716c1.2-1.92,1.921-3.997,2.161-6.229c-1.752-0.12-3.348-0.18-4.788-0.18
	C27.686,20.366,26.186,20.426,24.506,20.546z"/>
</svg>
