<?xml version="1.0" encoding="utf-8"?>
<!-- Generator: Adobe Illustrator 16.0.0, SVG Export Plug-In . SVG Version: 6.00 Build 0)  -->
<!DOCTYPE svg PUBLIC "-//W3C//DTD SVG 1.1//EN" "http://www.w3.org/Graphics/SVG/1.1/DTD/svg11.dtd">
<svg version="1.1" id="Layer_1" xmlns="http://www.w3.org/2000/svg" xmlns:xlink="http://www.w3.org/1999/xlink" x="0px" y="0px"
	 width="38.972px" height="38.972px" viewBox="0 0 38.972 38.972" enable-background="new 0 0 38.972 38.972" xml:space="preserve">
<path fill-rule="evenodd" clip-rule="evenodd" fill="#3B3B3B" d="M33.333,1.486H5.639c-2.293,0-4.153,1.859-4.153,4.153v27.691
	c0,2.295,1.859,4.155,4.153,4.155h27.694c2.294,0,4.153-1.86,4.153-4.155V5.639C37.486,3.345,35.626,1.486,33.333,1.486z
	 M19.485,12.562c3.824,0,6.924,3.099,6.924,6.922c0,3.824-3.1,6.924-6.924,6.924s-6.923-3.1-6.923-6.924
	C12.562,15.662,15.662,12.562,19.485,12.562z M33.333,31.947c0,0.764-0.62,1.384-1.386,1.384H7.024c-0.766,0-1.386-0.62-1.386-1.384
	V16.715h3.134c-0.229,0.886-0.364,1.812-0.364,2.77c0,6.119,4.959,11.078,11.076,11.078c6.118,0,11.076-4.959,11.076-11.078
	c0-0.957-0.135-1.883-0.363-2.77h3.134V31.947z M33.333,11.178c0,0.764-0.62,1.384-1.386,1.384h-4.153
	c-0.765,0-1.384-0.621-1.384-1.384V7.023c0-0.765,0.62-1.384,1.384-1.384h4.153c0.766,0,1.386,0.62,1.386,1.384V11.178z"/>
</svg>
