<?xml version="1.0" encoding="utf-8"?>
<!-- Generator: Adobe Illustrator 16.0.0, SVG Export Plug-In . SVG Version: 6.00 Build 0)  -->
<!DOCTYPE svg PUBLIC "-//W3C//DTD SVG 1.1//EN" "http://www.w3.org/Graphics/SVG/1.1/DTD/svg11.dtd">
<svg version="1.1" id="Layer_1" xmlns="http://www.w3.org/2000/svg" xmlns:xlink="http://www.w3.org/1999/xlink" x="0px" y="0px"
	 width="56.25px" height="24.426px" viewBox="0 0 56.25 24.426" enable-background="new 0 0 56.25 24.426" xml:space="preserve">
<g>
	<g>
		<g>
			<path fill="#00FFAA" d="M5.541,12.623c-0.107,0-0.194,0.086-0.207,0.206L4.84,17.317l0.494,4.391
				c0.013,0.117,0.1,0.203,0.207,0.203c0.105,0,0.191-0.084,0.208-0.203l0.558-4.391l-0.557-4.49
				C5.732,12.707,5.646,12.623,5.541,12.623z"/>
			<path fill="#00FFAA" d="M3.693,14.344c-0.105,0-0.188,0.08-0.201,0.193l-0.366,2.778l0.366,2.729
				c0.014,0.113,0.096,0.195,0.201,0.195c0.102,0,0.183-0.082,0.2-0.195l0.431-2.729l-0.431-2.778
				C3.876,14.422,3.794,14.344,3.693,14.344z"/>
			<path fill="#00FFAA" d="M7.504,11.743c-0.131,0-0.236,0.104-0.25,0.245l-0.466,5.329l0.466,5.133
				c0.014,0.143,0.12,0.245,0.25,0.245s0.235-0.104,0.252-0.245l0.529-5.133l-0.529-5.329C7.739,11.846,7.634,11.743,7.504,11.743z"
				/>
			<path fill="#00FFAA" d="M9.484,11.555c-0.154,0-0.28,0.124-0.292,0.288l-0.44,5.474l0.44,5.296
				C9.205,22.777,9.33,22.9,9.484,22.9c0.155,0,0.28-0.123,0.294-0.287l0.5-5.296l-0.5-5.476C9.766,11.679,9.64,11.555,9.484,11.555
				z"/>
			<path fill="#00FFAA" d="M11.816,22.657L11.816,22.657L11.816,22.657z"/>
			<path fill="#00FFAA" d="M11.816,12.238c-0.011-0.188-0.157-0.329-0.334-0.329c-0.181,0-0.325,0.141-0.336,0.332l-0.416,5.076
				l0.416,5.34c0.012,0.188,0.155,0.331,0.336,0.331c0.177,0,0.323-0.144,0.334-0.331l0.474-5.34L11.816,12.238z"/>
			<path fill="#00FFAA" d="M13.496,8.683c-0.203,0-0.37,0.164-0.379,0.376l-0.391,8.262l0.391,5.338
				c0.009,0.209,0.176,0.375,0.379,0.375c0.198,0,0.364-0.168,0.378-0.377v0.002l0.441-5.338l-0.441-8.264
				C13.86,8.847,13.694,8.683,13.496,8.683z"/>
			<path fill="#00FFAA" d="M15.492,6.779c-0.227,0-0.412,0.186-0.422,0.419L14.706,17.35l0.364,5.304
				c0.011,0.231,0.196,0.416,0.422,0.416c0.224,0,0.411-0.185,0.42-0.418v0.002l0.415-5.304L15.913,7.198
				C15.903,6.964,15.717,6.779,15.492,6.779z"/>
			<path fill="#00FFAA" d="M17.568,5.863c-0.252,0-0.457,0.203-0.462,0.461l-0.343,10.999l0.343,5.25
				c0.006,0.256,0.211,0.459,0.462,0.459c0.249,0,0.454-0.203,0.462-0.462v0.005l0.385-5.252L18.03,6.324
				C18.021,6.066,17.817,5.863,17.568,5.863z"/>
			<path fill="#00FFAA" d="M20.135,5.954c-0.01-0.282-0.231-0.503-0.506-0.503c-0.277,0-0.501,0.221-0.506,0.503l-0.317,11.369
				l0.317,5.219c0.005,0.281,0.229,0.502,0.506,0.502c0.275,0,0.496-0.221,0.506-0.504l0.355-5.217L20.135,5.954z"/>
			<polygon fill="#00FFAA" points="20.135,22.54 20.135,22.54 20.135,22.542 			"/>
			<path fill="#00FFAA" d="M21.705,5.699c-0.3,0-0.543,0.24-0.548,0.546l-0.291,11.078l0.291,5.17
				c0.005,0.305,0.248,0.545,0.548,0.545c0.299,0,0.541-0.24,0.55-0.549v0.006l0.324-5.172L22.255,6.245
				C22.245,5.939,22.004,5.699,21.705,5.699z"/>
			<path fill="#00FFAA" d="M23.798,6.061c-0.325,0-0.584,0.26-0.592,0.591l-0.264,10.673l0.265,5.135
				c0.005,0.326,0.266,0.586,0.59,0.586c0.325,0,0.587-0.26,0.593-0.59v0.004l0.297-5.135L24.39,6.651
				C24.384,6.321,24.122,6.061,23.798,6.061z"/>
			<path fill="#00FFAA" d="M26.257,4.097c-0.102-0.066-0.221-0.106-0.349-0.106c-0.126,0-0.244,0.038-0.344,0.104
				c-0.172,0.112-0.288,0.307-0.29,0.529l-0.005,0.12l-0.236,12.579c0,0.008,0.241,5.104,0.241,5.104s0,0.017,0,0.021
				c0.007,0.143,0.061,0.273,0.148,0.377c0.115,0.141,0.29,0.232,0.486,0.232c0.171,0,0.328-0.073,0.443-0.188
				c0.114-0.115,0.188-0.271,0.191-0.445l0.027-0.508l0.24-4.594l-0.267-12.7C26.539,4.406,26.426,4.212,26.257,4.097z"/>
			<polygon fill="#00FFAA" points="26.542,22.426 26.542,22.424 26.542,22.426 26.542,22.424 26.542,22.422 26.542,22.424 
				26.542,22.424 			"/>
			<path fill="#00FFAA" d="M28.352,2.895c-0.102-0.063-0.219-0.098-0.346-0.098c-0.16,0-0.309,0.058-0.425,0.154
				c-0.152,0.125-0.248,0.312-0.25,0.521L27.33,3.541l-0.276,13.786l0.141,2.547l0.139,2.48c0.003,0.365,0.307,0.67,0.674,0.67
				c0.37,0,0.673-0.305,0.679-0.676v0.006l0,0l0.299-5.027l0,0L28.685,3.472C28.681,3.227,28.547,3.011,28.352,2.895z"/>
			<path fill="#00FFAA" d="M46.975,10.769c-0.842,0-1.646,0.169-2.379,0.476c-0.489-5.541-5.137-9.888-10.805-9.888
				c-1.388,0-2.74,0.271-3.937,0.733c-0.465,0.18-0.587,0.365-0.592,0.724v19.521c0.005,0.375,0.296,0.668,0.663,0.705
				c0.017,0.002,17.049,0,17.049,0c3.396,0,6.148-2.723,6.148-6.119C53.125,13.522,50.374,10.769,46.975,10.769z"/>
		</g>
	</g>
</g>
</svg>
